# xmcd
#
# Track frame offsets: 
#        150
#        16571
#        31812
#        49487
#        65602
#        86351
#        102565
#        119955
#        135118
#        148109
#        168197
#        182078
#        194727
#        210736
#        226383
#        242262
#        258249
#        271513
#        286210
#        304896
#
# Disc length: 4114 seconds
#
# Revision: 0
# Processed by: cddbd v1.5.2PL0 Copyright (c) Steve Scherf et al.
# Submitted via: ExactAudioCopy v1.1
#
DISCID=18101014
DTITLE=Various Artist - Studio Brussel - Dance With The Devils #Redtogether -
DTITLE=CD 2
DYEAR=2018
DGENRE=Pop
TTITLE0=Tom Waes - Dva Vodka
TTITLE1=Kaiser Chiefs - Ruby
TTITLE2=Coldplay - Viva La Vida
TTITLE3=MC Fioti, Future, J Balvin, Stefflon Don and Juan Magan - Bum Bu
TTITLE3=m Tam Tam
TTITLE4=Rick Ross Feat. Young Thug and Wale - Trap Trap Trap
TTITLE5=Junior Jack - E Samba
TTITLE6=Faithless - Insomnia
TTITLE7=Yeah Yeah Yeahs - Heads Will Roll (A-Trak Remix)
TTITLE8=Gunther D - Dance With The Devils
TTITLE9=The Weeknd Feat. Daft Punk - I Feel It Coming
TTITLE10=Safri Duo - Played-A-Live (The Bongo Song)
TTITLE11=Sandro Silva and Quintino - Epic
TTITLE12=The Opposites and Yellow Claw - Thunder
TTITLE13=DJ Fresh Feat. Sian Evans - Louder
TTITLE14=Hardwell Feat. Amba Shepherd - Apollo
TTITLE15=Elvis Presley Vs. JXL - A Little Less Conversation
TTITLE16=Dizzee Rascal and Armand Van Helden - Bonkers
TTITLE17=Gloria Gaynor - I Will Survive
TTITLE18=Opus - Live Is Life
TTITLE19=La Brabançonne - Various
EXTD=
EXTT0=
EXTT1=
EXTT2=
EXTT3=
EXTT4=
EXTT5=
EXTT6=
EXTT7=
EXTT8=
EXTT9=
EXTT10=
EXTT11=
EXTT12=
EXTT13=
EXTT14=
EXTT15=
EXTT16=
EXTT17=
EXTT18=
EXTT19=
PLAYORDER=
